<?xml version="1.0" standalone="no"?>
<!DOCTYPE svg PUBLIC "-//W3C//DTD SVG 20010904//EN"
 "http://www.w3.org/TR/2001/REC-SVG-20010904/DTD/svg10.dtd">
<svg version="1.0" xmlns="http://www.w3.org/2000/svg"
 width="711.000000pt" height="711.000000pt" viewBox="0 0 711.000000 711.000000"
 preserveAspectRatio="xMidYMid meet">

<g transform="translate(0.000000,711.000000) scale(0.100000,-0.100000)"
fill="#000000" stroke="none">
<path d="M3515 6523 c-231 -21 -512 -121 -707 -255 -114 -77 -304 -264 -380
-373 -102 -146 -198 -367 -241 -549 -29 -125 -31 -467 -4 -596 32 -150 129
-396 192 -489 17 -25 46 -68 64 -94 68 -98 248 -274 373 -363 49 -35 153 -91
243 -130 354 -154 753 -165 1110 -30 139 52 352 172 363 204 2 6 -7 17 -21 23
-20 9 -37 6 -98 -19 -41 -16 -101 -35 -134 -42 -33 -6 -79 -16 -102 -21 -65
-14 -283 -11 -389 6 -161 26 -349 100 -488 193 -86 56 -228 191 -306 288 -63
79 -159 258 -195 365 -100 294 -77 647 60 936 82 172 162 276 321 417 78 69
198 150 256 171 9 4 -29 -40 -85 -97 -119 -120 -184 -223 -234 -368 -83 -243
-63 -526 53 -750 152 -295 432 -489 754 -522 183 -18 338 3 493 68 72 30 210
120 250 161 l27 30 -67 -33 c-140 -66 -186 -77 -346 -82 -140 -4 -154 -2 -235
23 -300 93 -510 307 -582 590 -29 118 -28 301 3 415 48 171 134 306 266 416
125 105 286 170 468 189 67 7 223 -9 282 -30 l36 -12 -63 -11 c-86 -15 -146
-47 -201 -108 -58 -64 -81 -129 -81 -233 0 -66 4 -84 33 -141 27 -53 45 -72
95 -107 75 -51 115 -63 207 -62 70 0 128 17 176 51 23 17 22 17 -20 3 -132
-45 -283 21 -346 150 -24 49 -27 64 -23 128 4 56 11 84 33 121 31 53 100 115
148 133 53 19 166 15 217 -7 l45 -20 -60 55 c-75 69 -231 182 -316 229 -90 49
-274 121 -372 145 -132 32 -330 47 -472 34z"/>
<path d="M3885 5996 c-42 -55 -88 -133 -111 -187 -22 -54 -27 -83 -31 -186 -6
-140 10 -214 74 -336 45 -85 155 -190 245 -234 179 -88 395 -84 573 10 127 67
247 221 290 372 21 72 24 217 5 295 -21 88 -98 232 -146 271 -16 12 -15 9 2
-21 51 -86 69 -151 68 -245 -1 -106 -30 -197 -96 -295 -174 -261 -562 -298
-779 -73 -73 75 -102 123 -130 213 -19 62 -21 88 -16 179 5 102 16 148 53 214
17 30 15 46 -1 23z"/>
<path d="M1355 3114 c-272 -57 -449 -231 -515 -507 -60 -249 -22 -546 94 -719
86 -131 248 -241 393 -269 96 -18 293 -7 373 20 87 30 190 100 241 164 49 61
121 207 123 250 l1 31 -135 42 c-74 24 -135 42 -135 41 -1 -1 -12 -31 -25 -67
-12 -36 -33 -81 -46 -101 -124 -197 -427 -182 -541 27 -47 87 -65 182 -66 344
0 260 63 399 212 469 75 35 211 37 282 5 62 -29 116 -86 147 -153 14 -31 26
-58 28 -59 1 -2 66 11 144 30 164 38 157 26 90 164 -67 138 -188 234 -346 274
-72 19 -257 26 -319 14z"/>
<path d="M2775 3104 c-170 -41 -326 -167 -404 -324 -69 -141 -84 -217 -85
-420 -1 -202 11 -263 76 -398 77 -163 240 -297 409 -337 82 -19 265 -19 347 0
133 31 255 119 333 237 43 68 96 205 83 217 -5 5 -62 25 -127 45 -65 21 -124
39 -131 42 -10 4 -19 -11 -31 -48 -39 -118 -88 -183 -169 -226 -44 -23 -63
-27 -141 -27 -78 0 -97 4 -147 28 -142 70 -202 210 -202 472 -1 209 32 324
116 407 86 86 220 119 343 84 74 -22 166 -108 186 -175 7 -24 18 -45 24 -48
10 -3 225 45 272 62 10 3 7 21 -11 69 -63 176 -201 297 -387 341 -81 19 -273
18 -354 -1z"/>
<path d="M5640 3113 c-158 -26 -326 -139 -414 -276 -96 -150 -140 -377 -116
-596 22 -199 81 -332 200 -452 126 -127 259 -179 455 -179 234 0 391 76 498
238 41 61 90 170 99 215 2 16 -18 26 -137 63 -77 24 -141 44 -142 44 -1 0 -4
-15 -8 -32 -14 -68 -65 -156 -115 -201 -66 -60 -130 -81 -224 -75 -166 11
-271 115 -312 310 -20 93 -14 368 9 439 37 111 102 190 192 231 40 18 67 23
141 23 81 0 97 -3 149 -30 66 -33 123 -100 145 -166 7 -21 17 -39 21 -39 12 0
274 62 278 66 10 9 -46 135 -85 194 -70 106 -178 178 -319 215 -55 14 -249 19
-315 8z"/>
<path d="M3800 2365 l0 -735 145 0 145 0 0 273 0 274 208 6 c246 8 305 17 394
64 154 80 226 223 216 428 -6 114 -30 190 -82 258 -42 56 -120 113 -179 133
-67 22 -255 33 -574 34 l-273 0 0 -735z m685 466 c45 -18 104 -80 115 -121 22
-80 1 -169 -51 -217 -51 -47 -93 -56 -281 -61 l-178 -4 0 212 0 212 183 -4
c110 -3 194 -10 212 -17z"/>
<path d="M896 1318 c-49 -70 32 -161 88 -99 22 24 3 39 -20 17 -19 -19 -26
-20 -42 -4 -17 17 -15 63 3 78 13 11 20 11 40 0 31 -16 42 -8 20 14 -24 24
-71 20 -89 -6z"/>
<path d="M1036 1318 c-36 -51 -8 -118 48 -118 19 0 40 8 49 18 23 25 22 85 -1
105 -27 25 -78 22 -96 -5z m73 -12 c17 -20 10 -67 -11 -79 -23 -15 -48 8 -48
42 0 45 35 66 59 37z"/>
<path d="M1180 1270 c0 -78 19 -99 21 -22 l1 47 15 -47 c18 -59 37 -61 50 -5
l11 42 1 -42 c1 -31 5 -43 16 -43 12 0 15 15 15 71 0 67 -1 70 -22 67 -15 -2
-24 -14 -32 -43 -12 -43 -19 -40 -31 13 -5 22 -12 32 -26 32 -17 0 -19 -8 -19
-70z"/>
<path d="M1340 1270 c0 -56 3 -70 15 -70 9 0 15 9 15 23 0 17 8 25 33 32 22 7
33 17 35 33 5 34 -15 52 -59 52 l-39 0 0 -70z m68 27 c2 -12 -3 -17 -17 -17
-15 0 -21 6 -21 21 0 25 33 22 38 -4z"/>
<path d="M1470 1270 l0 -70 50 0 c28 0 50 5 50 10 0 6 -16 10 -35 10 -28 0
-35 4 -35 19 0 15 8 21 33 23 17 2 32 8 32 13 0 6 -15 11 -32 13 -47 5 -44 32
2 32 19 0 35 5 35 10 0 6 -22 10 -50 10 l-50 0 0 -70z"/>
<path d="M1590 1330 c0 -5 9 -10 20 -10 18 0 20 -7 20 -60 0 -47 3 -60 15 -60
12 0 15 13 15 60 0 53 2 60 20 60 11 0 20 5 20 10 0 6 -25 10 -55 10 -30 0
-55 -4 -55 -10z"/>
<path d="M1720 1270 c0 -56 3 -70 15 -70 12 0 15 14 15 70 0 56 -3 70 -15 70
-12 0 -15 -14 -15 -70z"/>
<path d="M1787 1322 c-23 -25 -22 -85 1 -105 44 -40 112 -8 112 53 0 62 -74
96 -113 52z m72 -16 c17 -20 10 -67 -11 -79 -23 -15 -48 8 -48 42 0 45 35 66
59 37z"/>
<path d="M1920 1270 c0 -54 3 -70 14 -70 10 0 16 14 18 43 l3 42 24 -42 c37
-64 51 -57 51 27 0 40 -4 70 -10 70 -5 0 -10 -21 -10 -47 l0 -48 -30 48 c-44
69 -60 63 -60 -23z"/>
<path d="M2132 1288 c-11 -29 -23 -61 -27 -70 -5 -12 -2 -18 8 -18 8 0 17 7
21 15 3 9 18 15 36 15 20 0 30 -5 30 -15 0 -8 7 -15 15 -15 20 0 19 6 -9 76
-31 77 -49 80 -74 12z m48 -20 c0 -5 -7 -8 -15 -8 -17 0 -18 2 -9 25 5 13 8
14 15 3 5 -7 9 -16 9 -20z"/>
<path d="M2250 1270 c0 -56 3 -70 15 -70 11 0 15 12 15 43 l1 42 25 -42 c39
-65 54 -57 54 27 0 40 -4 70 -10 70 -5 0 -10 -18 -10 -40 0 -22 -3 -40 -7 -40
-5 0 -18 18 -31 40 -36 63 -52 53 -52 -30z"/>
<path d="M2390 1270 l0 -70 38 0 c55 0 77 20 77 68 0 54 -18 72 -71 72 l-44 0
0 -70z m78 38 c7 -7 12 -24 12 -38 0 -30 -17 -50 -42 -50 -15 0 -18 9 -18 50
0 41 3 50 18 50 10 0 23 -5 30 -12z"/>
<path d="M2614 1332 c-38 -25 -40 -103 -4 -122 41 -22 90 -3 90 34 0 13 -28 5
-34 -9 -8 -21 -33 -19 -46 4 -14 26 -13 44 4 66 13 17 17 18 40 6 30 -17 45
-9 26 14 -13 16 -57 20 -76 7z"/>
<path d="M2746 1325 c-55 -56 -8 -140 68 -121 45 11 54 102 13 128 -20 13 -65
9 -81 -7z m68 -21 c9 -8 16 -24 16 -34 0 -19 -25 -50 -40 -50 -14 0 -40 30
-40 46 0 24 19 54 35 54 7 0 21 -7 29 -16z"/>
<path d="M2880 1270 c0 -56 3 -70 15 -70 11 0 15 11 15 43 l0 42 26 -42 c38
-65 54 -57 54 27 0 56 -3 70 -15 70 -11 0 -15 -12 -15 -42 l-1 -43 -25 43
c-39 64 -54 56 -54 -28z"/>
<path d="M3032 1328 c-24 -24 -13 -49 28 -65 22 -9 40 -20 40 -25 0 -18 -31
-20 -50 -3 -23 21 -39 12 -24 -13 13 -20 36 -26 70 -18 21 6 25 12 22 39 -2
26 -9 33 -35 41 -18 5 -33 15 -33 22 0 17 14 18 40 2 24 -15 37 -4 20 17 -15
18 -61 20 -78 3z"/>
<path d="M3150 1289 c0 -68 13 -89 53 -89 46 0 57 16 57 82 0 44 -3 58 -15 58
-10 0 -15 -15 -17 -57 -3 -50 -6 -58 -23 -58 -17 0 -20 8 -23 58 -2 42 -7 57
-17 57 -11 0 -15 -13 -15 -51z"/>
<path d="M3290 1271 c0 -56 3 -71 15 -71 11 0 15 12 16 43 l1 42 11 -42 c13
-56 32 -54 50 5 l15 47 1 -47 c2 -77 21 -56 21 22 0 62 -2 70 -19 70 -14 0
-21 -10 -26 -32 -12 -53 -19 -56 -31 -13 -8 29 -17 41 -32 43 -21 3 -22 0 -22
-67z"/>
<path d="M3450 1270 l0 -70 55 0 c62 0 75 17 18 22 -27 2 -39 8 -41 21 -3 14
4 17 32 17 25 0 36 4 36 15 0 10 -11 15 -35 15 -24 0 -35 5 -35 15 0 11 11 15
40 15 22 0 40 5 40 10 0 6 -25 10 -55 10 l-55 0 0 -70z"/>
<path d="M3580 1270 c0 -56 3 -70 15 -70 10 0 15 10 15 30 0 17 4 30 10 30 5
0 19 -13 32 -30 34 -47 65 -39 32 8 -14 20 -14 24 0 38 19 18 19 20 6 45 -8
15 -22 19 -60 19 l-50 0 0 -70z m85 30 c0 -9 -11 -16 -27 -18 -23 -3 -28 1
-28 18 0 17 5 21 28 18 16 -2 27 -9 27 -18z"/>
<path d="M3780 1270 c0 -56 3 -70 15 -70 9 0 15 9 15 23 0 17 8 25 33 32 25 8
33 16 35 39 4 35 -10 46 -60 46 l-38 0 0 -70z m69 37 c13 -16 5 -27 -21 -27
-11 0 -18 7 -18 20 0 23 22 27 39 7z"/>
<path d="M3910 1270 c0 -56 3 -70 15 -70 10 0 15 10 15 30 0 38 9 38 41 -1 32
-39 61 -36 30 3 -18 23 -19 27 -6 38 18 15 19 42 3 58 -7 7 -31 12 -55 12
l-43 0 0 -70z m78 28 c3 -13 -3 -18 -22 -18 -20 0 -26 5 -26 21 0 15 5 20 22
17 13 -2 24 -11 26 -20z"/>
<path d="M4066 1324 c-9 -9 -16 -32 -16 -54 0 -45 20 -70 56 -70 38 0 62 17
69 49 6 30 -7 69 -29 83 -19 13 -64 9 -80 -8z m76 -29 c13 -29 -2 -75 -26 -75
-20 0 -46 28 -46 50 0 22 26 50 46 50 8 0 20 -11 26 -25z"/>
<path d="M4190 1330 c0 -5 9 -10 20 -10 18 0 20 -7 20 -60 0 -47 3 -60 15 -60
12 0 15 13 15 60 0 53 2 60 20 60 11 0 20 5 20 10 0 6 -25 10 -55 10 -30 0
-55 -4 -55 -10z"/>
<path d="M4320 1270 l0 -70 50 0 c28 0 50 5 50 10 0 6 -16 10 -35 10 -28 0
-35 4 -35 20 0 16 7 20 36 20 45 0 42 24 -4 28 -46 5 -43 32 3 32 19 0 35 5
35 10 0 6 -22 10 -50 10 l-50 0 0 -70z"/>
<path d="M4467 1322 c-23 -25 -22 -85 2 -106 23 -21 70 -18 85 6 15 24 0 34
-22 15 -10 -10 -24 -17 -31 -17 -19 0 -32 47 -21 75 11 28 21 31 50 13 24 -15
37 -4 20 17 -17 21 -63 19 -83 -3z"/>
<path d="M4580 1330 c0 -5 9 -10 20 -10 18 0 20 -7 20 -60 0 -47 3 -60 15 -60
12 0 15 13 15 60 0 53 2 60 20 60 11 0 20 5 20 10 0 6 -25 10 -55 10 -30 0
-55 -4 -55 -10z"/>
<path d="M4710 1270 c0 -56 3 -70 15 -70 12 0 15 14 15 70 0 56 -3 70 -15 70
-12 0 -15 -14 -15 -70z"/>
<path d="M4776 1318 c-36 -51 -8 -118 48 -118 19 0 40 8 49 18 23 25 22 85 -1
105 -27 25 -78 22 -96 -5z m73 -12 c17 -20 10 -67 -11 -79 -23 -15 -48 8 -48
42 0 45 35 66 59 37z"/>
<path d="M4920 1270 c0 -76 17 -97 22 -27 l3 42 25 -42 c37 -63 50 -56 50 27
0 40 -4 70 -10 70 -5 0 -10 -21 -10 -47 l-1 -48 -27 47 c-39 68 -52 63 -52
-22z"/>
<path d="M5127 1322 c-23 -25 -22 -85 2 -106 23 -21 70 -18 85 6 15 25 -1 34
-24 13 -29 -26 -50 -13 -50 34 0 44 19 58 50 39 24 -15 37 -4 20 17 -17 21
-63 19 -83 -3z"/>
<path d="M5267 1322 c-23 -25 -22 -85 1 -105 45 -41 112 -8 112 55 0 57 -76
91 -113 50z m72 -16 c17 -20 10 -67 -11 -79 -23 -15 -48 8 -48 42 0 45 35 66
59 37z"/>
<path d="M5400 1270 c0 -56 3 -70 15 -70 11 0 15 13 16 48 l2 47 10 -48 c13
-61 36 -60 53 3 l12 45 1 -47 c2 -77 21 -56 21 22 0 63 -2 70 -20 70 -14 0
-21 -9 -26 -35 -9 -50 -21 -52 -29 -5 -6 34 -11 40 -31 40 -23 0 -24 -3 -24
-70z"/>
<path d="M5570 1270 c0 -79 17 -96 22 -22 l3 47 10 -45 c14 -61 39 -65 52 -8
l11 43 1 -42 c1 -31 5 -43 16 -43 12 0 15 14 15 70 0 67 -1 70 -24 70 -20 0
-25 -6 -31 -40 -8 -47 -20 -45 -29 5 -5 26 -12 35 -26 35 -18 0 -20 -7 -20
-70z"/>
<path d="M5730 1270 c0 -56 3 -70 15 -70 12 0 15 14 15 70 0 56 -3 70 -15 70
-12 0 -15 -14 -15 -70z"/>
<path d="M5790 1325 c-18 -22 -2 -54 32 -63 18 -4 33 -13 36 -20 7 -21 -28
-25 -48 -7 -23 21 -39 12 -24 -13 6 -10 27 -18 47 -20 67 -6 73 68 7 83 -33 7
-41 35 -10 35 11 0 20 -4 20 -10 0 -5 7 -10 15 -10 18 0 19 12 3 28 -17 17
-63 15 -78 -3z"/>
<path d="M5920 1325 c-18 -22 -2 -54 32 -63 18 -4 33 -13 36 -20 7 -21 -28
-25 -48 -7 -23 21 -39 12 -24 -13 6 -10 27 -18 47 -20 67 -6 73 68 7 83 -33 7
-41 35 -10 35 11 0 20 -4 20 -10 0 -5 7 -10 15 -10 18 0 19 12 3 28 -17 17
-63 15 -78 -3z"/>
<path d="M6040 1270 c0 -56 3 -70 15 -70 12 0 15 14 15 70 0 56 -3 70 -15 70
-12 0 -15 -14 -15 -70z"/>
<path d="M6106 1318 c-36 -51 -8 -118 48 -118 19 0 40 8 49 18 23 25 22 85 -1
105 -27 25 -78 22 -96 -5z m68 -4 c21 -8 21 -67 0 -85 -34 -28 -73 41 -43 77
13 16 20 17 43 8z"/>
<path d="M6250 1270 c0 -76 17 -97 22 -27 l3 42 28 -42 c42 -65 57 -58 57 27
0 54 -3 70 -14 70 -10 0 -16 -14 -18 -42 l-3 -43 -24 43 c-37 63 -51 56 -51
-28z"/>
</g>
</svg>
